<svg
   width="115.15337mm"
   height="18.88596mm"
   viewBox="0 0 115.15337 18.88596"
   version="1.1"
   xmlns="http://www.w3.org/2000/svg"
   xmlns:svg="http://www.w3.org/2000/svg">

  <g transform="translate(-53.684797,-97.336744)">
    <g transform="matrix(0.67984015,0,0,0.67984015,-45.763996,-465.14821)">
      <g transform="translate(4,0.45007972)">
        <rect
           ry="0"
           rx="0"
           y="714.23175"
           x="-487.7937"
           height="6.7144346"
           width="6.7144346"
           style="fill:#214478;"
           transform="rotate(-45)" />
        <rect
           style="fill:#214478"
           width="6.7144346"
           height="6.7144346"
           x="-479.41006"
           y="714.23175"
           rx="0"
           ry="0"
           transform="rotate(-45)" />
        <rect
           style="fill:#214478"
           width="6.7144346"
           height="6.7144346"
           x="-704.10974"
           y="-496.17731"
           rx="0"
           ry="0"
           transform="rotate(-135)" />
        <rect
           ry="0"
           rx="0"
           y="-496.17731"
           x="-712.52802"
           height="6.7144346"
           width="6.7144346"
           style="fill:#214478"
           transform="rotate(-135)" />
        <rect
           transform="rotate(-135)"
           style="fill:#9e9e9e"
           width="6.7144346"
           height="6.7144346"
           x="-712.43573"
           y="-487.78217"
           rx="0"
           ry="0" />
        <rect
           style="fill:#5aa02c"
           width="3.3451991"
           height="3.3451991"
           x="-487.74515"
           y="700.72656"
           transform="rotate(-45)" />
        <rect
           y="709.10571"
           x="-479.40509"
           height="3.3451991"
           width="3.3451991"
           style="fill:#5aa02c"
           transform="rotate(-45)" />
        <rect
           style="fill:#5aa02c"
           width="3.3451991"
           height="3.3451991"
           x="-479.4057"
           y="700.72662"
           transform="rotate(-45)" />
      </g>
      <g
         id="g4122-88-0">
        <path
           style="fill:#214478"
           d="m 315.66563,852.33904 v 2.8192 l -2.50833,10e-6 c -4.22683,1e-5 -8.45281,-2.12619 -8.45281,-6.35361 v -13.42146 l -3.98723,-1.9e-4 v -2.81944 h 3.9871 v -5.1853 h 4.22643 v 5.1853 h 6.73483 v 2.81944 l -6.73483,1.9e-4 7e-5,13.42146 c 0,2.11191 2.11346,3.53473 4.22643,3.53458 z"
           />
        <path
           style="fill:#214478"
           d="m 287.93182,832.56427 v 22.59381 l 4.22699,1.7e-4 v -22.594 z"
           id="path3825-62-1-4-6-6-6-7-7-2-9-3"
           />
        <path
           style="fill:#214478"
           d="m 203.09362,855.15825 -1.66863,-4.22633 -7.091,-18.36767 h 4.22699 l 7.091,18.36767 7.091,-18.36767 h 4.227 l -7.091,18.36767 -1.66842,4.22632 z"
           />
        <path
           style="fill:#214478"
           d="m 265.19145,832.56354 h 5.72795 c 4.46676,0 8.45385,2.12825 8.45385,6.354 l 1.2e-4,16.2406 h -4.22699 v -16.2406 c 0,-2.11283 -1.99356,-3.53457 -4.22699,-3.53457 h -5.72798 c -2.23569,0 -4.22699,1.4203 -4.22699,3.53435 v 16.24093 h -4.22697 l -1.1e-4,-16.24093 c 0,-4.22577 3.98516,-6.35378 8.45411,-6.35378 z"
           />
        <path
           style="fill:#214478"
           d="m 233.98155,832.54887 c -4.46888,0 -8.45312,2.12775 -8.45312,6.35352 v 6.29687 h 0.0137 v 3.60547 c 0,4.22574 3.98836,6.35351 8.45508,6.35352 h 5.72851 c 1.50608,0 3.78146,-0.19787 4.93021,-1.43042 l 1.07493,1.41972 2.43432,-0.003 v -5.92773 c 0.009,-0.135 0.0137,-0.27253 0.0137,-0.41211 v -6.29688 h -0.0137 v -0.33007 -3.27539 c 0,-4.22575 -3.98839,-6.35352 -8.45508,-6.35352 z m 0,2.81836 h 5.72853 c 2.23345,0 4.22656,1.42232 4.22656,3.53516 v 6.29687 h 0.002 v 3.83203 c -0.13754,1.98744 -2.05866,3.3086 -4.2129,3.3086 h -5.72851 c -2.23345,0 -4.22656,-1.42234 -4.22656,-3.53516 v -6.29688 h -0.0156 v -3.60546 c 0,-2.11406 1.99089,-3.53516 4.22656,-3.53516 z"
           />
      </g>
    </g>
  </g>
</svg>
